<svg xmlns="http://www.w3.org/2000/svg" style="display: none;">
  <defs>
    <symbol id="menu" fill="none" viewBox="0 0 32 32">
      <path stroke="currentColor" stroke-linecap="round" stroke-linejoin="round" stroke-width="2" d="M4 16h24M4 8h24M4 24h24"/>
    </symbol>
    <symbol fill="none" viewBox="0 0 8 8" id="fill-circle"  xmlns="http://www.w3.org/2000/svg">
      <circle cx="4" cy="4" r="4" fill="#fff"/>
    </symbol>
    <symbol fill="none" viewBox="0 0 8 8" id="empty-circle" xmlns="http://www.w3.org/2000/svg">
      <circle cx="4" cy="4" r="4" fill="#fff" fill-opacity=".3"/>
    </symbol>
    <symbol fill="none" viewBox="0 0 14 14" id="comment" xmlns="http://www.w3.org/2000/svg">
<path d="M13 9a1.334 1.334 0 0 1-1.333 1.333h-8L1 13V2.333A1.333 1.333 0 0 1 2.333 1h9.334A1.333 1.333 0 0 1 13 2.333V9Z" stroke="#747575" stroke-linecap="round" stroke-linejoin="round"/>
</symbol>
<symbol fill="none" viewBox="0 0 16 16" id="add" xmlns="http://www.w3.org/2000/svg">
<rect y="7.385" width="16" height="1.231" rx=".615" fill="#fff"/>
<rect x="8.615" width="16" height="1.231" rx=".615" transform="rotate(90 8.615 0)" fill="#fff"/>
</symbol>
<symbol fill="none" viewBox="0 0 36 35" id="empty-star" xmlns="http://www.w3.org/2000/svg">
<path d="m18.462 1.412 4.132 9.935a1.5 1.5 0 0 0 1.265.92l10.726.859a.5.5 0 0 1 .285.878l-8.172 7a1.5 1.5 0 0 0-.483 1.487l2.497 10.467a.5.5 0 0 1-.747.542l-9.183-5.608a1.5 1.5 0 0 0-1.564 0L8.035 33.5a.5.5 0 0 1-.746-.542L9.785 22.49a1.5 1.5 0 0 0-.483-1.487l-8.172-7a.5.5 0 0 1 .285-.878l10.726-.86a1.5 1.5 0 0 0 1.265-.92l4.132-9.934a.5.5 0 0 1 .924 0Z" stroke="#FF8066"/>
</symbol>
<symbol fill="none" viewBox="0 0 36 35" id="star" xmlns="http://www.w3.org/2000/svg">
<path d="m18.462 1.412 4.132 9.935a1.5 1.5 0 0 0 1.265.92l10.726.859a.5.5 0 0 1 .285.878l-8.172 7a1.5 1.5 0 0 0-.483 1.487l2.497 10.467a.5.5 0 0 1-.747.542l-9.183-5.608a1.5 1.5 0 0 0-1.564 0L8.035 33.5a.5.5 0 0 1-.746-.542L9.785 22.49a1.5 1.5 0 0 0-.483-1.487l-8.172-7a.5.5 0 0 1 .285-.878l10.726-.86a1.5 1.5 0 0 0 1.265-.92l4.132-9.934a.5.5 0 0 1 .924 0Z" fill="#FF8066" stroke="#FF8066"/>
</symbol>
<symbol fill="none" viewBox="0 0 16 16" id="empty-heart" xmlns="http://www.w3.org/2000/svg">
<path d="M13.894 3.074a3.666 3.666 0 0 0-5.187 0L8 3.78l-.706-.706A3.668 3.668 0 0 0 2.107 8.26l.707.707L8 14.154l5.187-5.187.707-.707a3.668 3.668 0 0 0 0-5.186Z" stroke="#747575" stroke-linecap="round" stroke-linejoin="round"/>
</symbol>
    <symbol fill="none" viewBox="0 0 36 30" id="empty-love" xmlns="http://www.w3.org/2000/svg">
<path d="M32.546 2.652a9.05 9.05 0 0 0-12.802 0L18 4.396l-1.745-1.744A9.052 9.052 0 0 0 3.454 15.454l1.744 1.744L18 30 30.8 17.198l1.745-1.744a9.05 9.05 0 0 0 0-12.802Z" fill="#EEE"/>
<symbol fill="none" viewBox="0 0 35 30" id="love" xmlns="http://www.w3.org/2000/svg">
<path d="M31.743 2.652a9.05 9.05 0 0 0-12.801 0l-1.745 1.744-1.744-1.744A9.052 9.052 0 1 0 2.651 15.454l1.745 1.744L17.197 30 30 17.198l1.744-1.744a9.049 9.049 0 0 0 0-12.802Z" fill="#FF8066"/>
</symbol>
<symbol fill="none" viewBox="0 0 20 20" id="writepen" xmlns="http://www.w3.org/2000/svg">
<path d="M10 18.56h9M14.5 2.06a2.121 2.121 0 1 1 3 3L5 17.56l-4 1 1-4 12.5-12.5Z" stroke="#424142" stroke-width="2" stroke-linecap="round" stroke-linejoin="round"/>
</symbol>
<symbol fill="none" viewBox="0 0 22 20" id="openbook" xmlns="http://www.w3.org/2000/svg">
<path d="M1 1h6a4 4 0 0 1 4 4v14a3 3 0 0 0-3-3H1V1ZM21 1h-6a4 4 0 0 0-4 4v14a3 3 0 0 1 3-3h7V1Z" stroke="#424142" stroke-width="2" stroke-linecap="round" stroke-linejoin="round"/>
</symbol>
<symbol fill="none" viewBox="0 0 20 22" id="calendar" xmlns="http://www.w3.org/2000/svg">
<path d="M17 3H3a2 2 0 0 0-2 2v14a2 2 0 0 0 2 2h14a2 2 0 0 0 2-2V5a2 2 0 0 0-2-2ZM14 1v4M6 1v4M1 9h18" stroke="#424142" stroke-width="2" stroke-linecap="round" stroke-linejoin="round"/>
</symbol>
<symbol fill="none" viewBox="0 0 15 13" id="camera" xmlns="http://www.w3.org/2000/svg">
<path fill-rule="evenodd" clip-rule="evenodd" d="M5.084.223A.5.5 0 0 1 5.5 0h3.75a.5.5 0 0 1 .416.223l1.102 1.652H13a1.75 1.75 0 0 1 1.75 1.75V10.5A1.75 1.75 0 0 1 13 12.25H1.75A1.75 1.75 0 0 1 0 10.5V3.625a1.75 1.75 0 0 1 1.75-1.75h2.232L5.084.223ZM5.768 1 4.666 2.652a.5.5 0 0 1-.416.223h-2.5a.75.75 0 0 0-.75.75V10.5a.75.75 0 0 0 .75.75H13a.75.75 0 0 0 .75-.75V3.625a.75.75 0 0 0-.75-.75h-2.5a.5.5 0 0 1-.416-.223L8.982 1H5.768Z" fill="#fff"/>
<path fill-rule="evenodd" clip-rule="evenodd" d="M7.375 4.75a2 2 0 1 0 0 4 2 2 0 0 0 0-4Zm-3 2a3 3 0 1 1 6 0 3 3 0 0 1-6 0Z" fill="#fff"/>
</symbol>
</symbol>
    <symbol id="right" fill="none" viewBox="0 0 32 32">
      <path stroke="currentColor" stroke-linecap="round" stroke-linejoin="round" stroke-width="2" d="m12 24 8-8-8-8"/>
    </symbol>
    <symbol id="left" fill="none" viewBox="0 0 32 32">
      <path stroke="currentColor" stroke-linecap="round" stroke-linejoin="round" stroke-width="2" d="m20 24-8-8 8-8"/>
    </symbol>
    
    <symbol id="close" fill="none" viewBox="0 0 32 32">
      <path stroke="currentColor" stroke-linecap="round" stroke-linejoin="round" stroke-width="2" d="M24 8 8 24M8 8l16 16"/>
    </symbol>
    <symbol id="edit" fill="none" viewBox="0 0 32 32">
      <path stroke="currentColor" stroke-linecap="round" stroke-linejoin="round" stroke-width="2" d="M14.667 5.333H5.333A2.667 2.667 0 0 0 2.667 8v18.667a2.667 2.667 0 0 0 2.666 2.666H24a2.667 2.667 0 0 0 2.667-2.666v-9.334"/>
      <path stroke="currentColor" stroke-linecap="round" stroke-linejoin="round" stroke-width="2" d="M24.667 3.333a2.829 2.829 0 0 1 4 4L16 20l-5.333 1.333L12 16 24.667 3.333Z"/>
    </symbol>
    <symbol id="bell" fill="none" viewBox="0 0 32 32">
      <path stroke="currentColor" stroke-linecap="round" stroke-linejoin="round" stroke-width="2" d="M23.766 11.11c0-1.91-.772-3.741-2.148-5.092a7.403 7.403 0 0 0-5.185-2.109c-1.945 0-3.81.759-5.186 2.11a7.134 7.134 0 0 0-2.148 5.09c0 8.4-3.666 10.8-3.666 10.8h22s-3.667-2.4-3.667-10.8Zm-5.333 15.8c-.254.304-.619.556-1.058.732a3.915 3.915 0 0 1-1.442.267 3.915 3.915 0 0 1-1.443-.267c-.438-.176-.803-.428-1.057-.733"/>
    </symbol>
    <symbol id="bell_new" fill="none" viewBox="0 0 32 32">
      <g clip-path="url(#a)">
        <path stroke="currentColor" stroke-linecap="round" stroke-linejoin="round" stroke-width="2" d="M23.766 11.11c0-1.91-.772-3.741-2.148-5.092a7.403 7.403 0 0 0-5.185-2.109c-1.945 0-3.81.759-5.186 2.11a7.134 7.134 0 0 0-2.148 5.09c0 8.4-3.666 10.8-3.666 10.8h22s-3.667-2.4-3.667-10.8Zm-5.333 15.8c-.254.304-.619.556-1.058.732a3.915 3.915 0 0 1-1.442.267 3.915 3.915 0 0 1-1.443-.267c-.438-.176-.803-.428-1.057-.733"/>
        <circle cx="27.933" cy="2.409" r="2.5" fill="#FF8066"/>
      </g>
      <defs>
        <clipPath id="a">
          <path fill="#fff" d="M0 0h32v32H0z"/>
        </clipPath>
      </defs>
    </symbol>
    <symbol id="user" fill="none" viewBox="0 0 32 32">
      <path stroke="currentColor" stroke-linecap="round" stroke-linejoin="round" stroke-width="2" d="M26.667 28v-2.667A5.333 5.333 0 0 0 21.333 20H10.667a5.333 5.333 0 0 0-5.334 5.333V28M16 14.667A5.333 5.333 0 1 0 16 4a5.333 5.333 0 0 0 0 10.667Z"/>
    </symbol>
    <symbol id="users" fill="none" viewBox="0 0 32 32">
      <path stroke="currentColor" stroke-linecap="round" stroke-linejoin="round" stroke-width="2" d="M22.667 28v-2.667A5.333 5.333 0 0 0 17.333 20H6.667a5.333 5.333 0 0 0-5.334 5.333V28M12 14.667A5.333 5.333 0 1 0 12 4a5.333 5.333 0 0 0 0 10.667ZM30.667 28v-2.667a5.333 5.333 0 0 0-4-5.16m-5.334-16a5.334 5.334 0 0 1 0 10.334"/>
    </symbol>
    <symbol id="more" fill="none" viewBox="0 0 32 32">
      <path fill="currentColor" d="M16 17.333a1.333 1.333 0 1 0 0-2.666 1.333 1.333 0 0 0 0 2.666ZM16 8a1.333 1.333 0 1 0 0-2.667A1.333 1.333 0 0 0 16 8Zm0 18.667A1.333 1.333 0 1 0 16 24a1.333 1.333 0 0 0 0 2.667Z"/>
    </symbol>
    <symbol id="send" fill="none" viewBox="0 0 32 32">
      <g clip-path="url(#a)">
        <path stroke="currentColor" stroke-linecap="round" stroke-linejoin="round" stroke-width="2" d="M33.705 18.385H16.853m16.852 0-20.682 9.958 3.83-9.958-3.83-9.959 20.682 9.959Z"/>
      </g>
      <defs>
        <clipPath id="a">
          <path fill="#fff" d="M18.384 0 36.77 18.385 18.384 36.77 0 18.385z"/>
        </clipPath>
      </defs>
    </symbol>
    <symbol id="exit" fill="none" viewBox="0 0 24 24">
      <path stroke="currentColor" stroke-linecap="round" stroke-linejoin="round" stroke-width="2" d="M9 21H5a2 2 0 0 1-2-2V5a2 2 0 0 1 2-2h4m7 14 5-5-5-5m5 5H9"/>
    </symbol>
    <symbol id="trash" fill="none" viewBox="0 0 24 24">
      <path stroke="currentColor" stroke-linecap="round" stroke-linejoin="round" stroke-width="2" d="M3 6h18m-2 0v14a2 2 0 0 1-2 2H7a2 2 0 0 1-2-2V6m3 0V4a2 2 0 0 1 2-2h4a2 2 0 0 1 2 2v2m-6 5v6m4-6v6"/>
    </symbol>
    <symbol id="image"  fill="none" viewBox="0 0 32 32">
      <path stroke="currentColor" stroke-linecap="round" stroke-linejoin="round" stroke-width="2" d="M23.778 6H8.222A2.222 2.222 0 0 0 6 8.222v15.556C6 25.005 6.995 26 8.222 26h15.556A2.222 2.222 0 0 0 26 23.778V8.222A2.222 2.222 0 0 0 23.778 6Z"/>
      <path stroke="currentColor" stroke-linecap="round" stroke-linejoin="round" stroke-width="2" d="m26 19.334-5.555-5.556L8.223 26m3.887-12.222a1.667 1.667 0 1 0 0-3.334 1.667 1.667 0 0 0 0 3.334Z"/>
    </symbol>
    <symbol id="sunny"  fill="none" viewBox="0 0 32 32">
      <path stroke="currentColor" stroke-linecap="round" stroke-linejoin="round" stroke-width="2" d="M16 21.417a5.417 5.417 0 1 0 0-10.834 5.417 5.417 0 0 0 0 10.834Zm0-17.334V6.25m0 19.5v2.167M7.572 7.572 9.11 9.11m13.78 13.78 1.539 1.538M4.084 16H6.25m19.5 0h2.166M7.572 24.428 9.11 22.89M22.89 9.11l1.539-1.538"/>
    </symbol>
    <symbol id="clock"  fill="none" viewBox="0 0 32 32">
      <path stroke="currentColor" stroke-linecap="round" stroke-linejoin="round" stroke-width="2" d="M16 26.833c5.983 0 10.833-4.85 10.833-10.833 0-5.983-4.85-10.833-10.833-10.833-5.983 0-10.833 4.85-10.833 10.833 0 5.983 4.85 10.833 10.833 10.833Z"/>
      <path stroke="currentColor" stroke-linecap="round" stroke-linejoin="round" stroke-width="2" d="M16 9.5V16l4.333 2.167"/>
    </symbol>
    <symbol id="check"  fill="none" viewBox="0 0 32 32">
      <path d="M26.6666 8L12 22.6667L5.33331 16" stroke="currentColor" stroke-width="2" stroke-linecap="round" stroke-linejoin="round"/>
    </symbol>
    <symbol id="setting"  fill="none" viewBox="0 0 32 32">
      <path d="M16 20C18.2091 20 20 18.2091 20 16C20 13.7909 18.2091 12 16 12C13.7909 12 12 13.7909 12 16C12 18.2091 13.7909 20 16 20Z" stroke="currentColor" stroke-width="2" stroke-linecap="round" stroke-linejoin="round"/>
      <path d="M25.8668 19.9999C25.6893 20.4021 25.6364 20.8482 25.7148 21.2807C25.7932 21.7132 25.9994 22.1123 26.3068 22.4266L26.3868 22.5066C26.6348 22.7542 26.8315 23.0484 26.9657 23.3721C27.0999 23.6958 27.1689 24.0428 27.1689 24.3933C27.1689 24.7437 27.0999 25.0907 26.9657 25.4144C26.8315 25.7382 26.6348 26.0323 26.3868 26.2799C26.1392 26.5279 25.8451 26.7245 25.5213 26.8587C25.1976 26.9929 24.8506 27.062 24.5002 27.062C24.1497 27.062 23.8027 26.9929 23.479 26.8587C23.1553 26.7245 22.8612 26.5279 22.6135 26.2799L22.5335 26.1999C22.2193 25.8925 21.8201 25.6863 21.3876 25.6079C20.9551 25.5295 20.509 25.5824 20.1068 25.7599C19.7125 25.9289 19.3761 26.2096 19.1392 26.5673C18.9023 26.925 18.7752 27.3442 18.7735 27.7733V27.9999C18.7735 28.7072 18.4925 29.3854 17.9924 29.8855C17.4924 30.3856 16.8141 30.6666 16.1068 30.6666C15.3996 30.6666 14.7213 30.3856 14.2212 29.8855C13.7211 29.3854 13.4402 28.7072 13.4402 27.9999V27.8799C13.4298 27.4386 13.287 27.0106 13.0302 26.6515C12.7734 26.2925 12.4145 26.019 12.0002 25.8666C11.598 25.6891 11.1519 25.6362 10.7194 25.7146C10.2869 25.793 9.88773 25.9992 9.5735 26.3066L9.4935 26.3866C9.24583 26.6345 8.95173 26.8312 8.628 26.9654C8.30428 27.0996 7.95727 27.1687 7.60683 27.1687C7.25639 27.1687 6.90938 27.0996 6.58566 26.9654C6.26193 26.8312 5.96782 26.6345 5.72016 26.3866C5.47223 26.1389 5.27553 25.8448 5.14134 25.5211C5.00714 25.1974 4.93807 24.8504 4.93807 24.4999C4.93807 24.1495 5.00714 23.8025 5.14134 23.4787C5.27553 23.155 5.47223 22.8609 5.72016 22.6133L5.80016 22.5333C6.10755 22.219 6.31374 21.8199 6.39217 21.3874C6.47059 20.9548 6.41765 20.5087 6.24016 20.1066C6.07115 19.7122 5.7905 19.3759 5.43278 19.139C5.07506 18.9021 4.65588 18.775 4.22683 18.7733H4.00016C3.29292 18.7733 2.61464 18.4923 2.11454 17.9922C1.61445 17.4921 1.3335 16.8138 1.3335 16.1066C1.3335 15.3993 1.61445 14.7211 2.11454 14.221C2.61464 13.7209 3.29292 13.4399 4.00016 13.4399H4.12016C4.56149 13.4296 4.9895 13.2867 5.34856 13.0299C5.70762 12.7731 5.98112 12.4142 6.1335 11.9999C6.31098 11.5978 6.36393 11.1517 6.2855 10.7191C6.20708 10.2866 6.00088 9.88749 5.6935 9.57325L5.6135 9.49325C5.36556 9.24559 5.16887 8.95149 5.03467 8.62776C4.90047 8.30403 4.8314 7.95703 4.8314 7.60659C4.8314 7.25614 4.90047 6.90914 5.03467 6.58541C5.16887 6.26168 5.36556 5.96758 5.6135 5.71992C5.86116 5.47198 6.15526 5.27529 6.47899 5.14109C6.80272 5.00689 7.14972 4.93782 7.50016 4.93782C7.8506 4.93782 8.19761 5.00689 8.52134 5.14109C8.84507 5.27529 9.13917 5.47198 9.38683 5.71992L9.46683 5.79992C9.78107 6.1073 10.1802 6.3135 10.6127 6.39192C11.0452 6.47035 11.4913 6.41741 11.8935 6.23992H12.0002C12.3945 6.0709 12.7309 5.79026 12.9678 5.43254C13.2047 5.07482 13.3318 4.65563 13.3335 4.22659V3.99992C13.3335 3.29267 13.6144 2.6144 14.1145 2.1143C14.6146 1.6142 15.2929 1.33325 16.0002 1.33325C16.7074 1.33325 17.3857 1.6142 17.8858 2.1143C18.3859 2.6144 18.6668 3.29267 18.6668 3.99992V4.11992C18.6685 4.54897 18.7957 4.96815 19.0326 5.32587C19.2695 5.68359 19.6058 5.96423 20.0002 6.13325C20.4023 6.31074 20.8484 6.36368 21.2809 6.28526C21.7135 6.20683 22.1126 6.00063 22.4268 5.69325L22.5068 5.61325C22.7545 5.36531 23.0486 5.16862 23.3723 5.03443C23.6961 4.90023 24.0431 4.83115 24.3935 4.83115C24.7439 4.83115 25.0909 4.90023 25.4147 5.03443C25.7384 5.16862 26.0325 5.36531 26.2802 5.61325C26.5281 5.86091 26.7248 6.15502 26.859 6.47874C26.9932 6.80247 27.0623 7.14948 27.0623 7.49992C27.0623 7.85036 26.9932 8.19736 26.859 8.52109C26.7248 8.84482 26.5281 9.13892 26.2802 9.38659L26.2002 9.46659C25.8928 9.78082 25.6866 10.1799 25.6082 10.6125C25.5297 11.045 25.5827 11.4911 25.7602 11.8933V11.9999C25.9292 12.3943 26.2098 12.7306 26.5675 12.9675C26.9253 13.2044 27.3444 13.3315 27.7735 13.3333H28.0002C28.7074 13.3333 29.3857 13.6142 29.8858 14.1143C30.3859 14.6144 30.6668 15.2927 30.6668 15.9999C30.6668 16.7072 30.3859 17.3854 29.8858 17.8855C29.3857 18.3856 28.7074 18.6666 28.0002 18.6666H27.8802C27.4511 18.6683 27.0319 18.7954 26.6742 19.0323C26.3165 19.2692 26.0358 19.6056 25.8668 19.9999Z" stroke="currentColor" stroke-width="2" stroke-linecap="round" stroke-linejoin="round"/>
    </symbol>
    <symbol id="error"  fill="none" viewBox="0 0 32 32">
      <path d="M15.9998 2.66602C8.63984 2.66602 2.6665 8.63935 2.6665 15.9993C2.6665 23.3593 8.63984 29.3327 15.9998 29.3327C23.3598 29.3327 29.3332 23.3593 29.3332 15.9993C29.3332 8.63935 23.3598 2.66602 15.9998 2.66602ZM17.3332 22.666H14.6665V19.9993H17.3332V22.666ZM17.3332 17.3327H14.6665V9.33268H17.3332V17.3327Z" fill="currentColor"/>
    </symbol>
    <symbol id="kakaotalk"  fill="none" viewBox="0 0 32 32">
      <mask id="path-1-inside-1_2707_1654" fill="white">
        <path d="M9.40076 29.1235C11.4493 30.1166 13.8131 30.511 16.231 30.1185C22.4813 29.1037 26.7257 23.2142 25.7109 16.9638C24.6962 10.7134 18.8066 6.4691 12.5562 7.48386C6.30584 8.49861 2.06153 14.3882 3.07628 20.6385C3.38441 22.5365 4.142 24.2494 5.22268 25.6863L4.49508 31.0177C4.46258 31.2558 4.70925 31.4335 4.92484 31.3274L9.40076 29.1235Z"/>
      </mask>
      <path d="M9.40076 29.1235C11.4493 30.1166 13.8131 30.511 16.231 30.1185C22.4813 29.1037 26.7257 23.2142 25.7109 16.9638C24.6962 10.7134 18.8066 6.4691 12.5562 7.48386C6.30584 8.49861 2.06153 14.3882 3.07628 20.6385C3.38441 22.5365 4.142 24.2494 5.22268 25.6863L4.49508 31.0177C4.46258 31.2558 4.70925 31.4335 4.92484 31.3274L9.40076 29.1235Z" fill="currentColor"/>
      <path d="M9.40076 29.1235L9.83697 28.2237L9.39734 28.0106L8.95903 28.2264L9.40076 29.1235ZM5.22268 25.6863L6.2135 25.8215L6.26912 25.414L6.02188 25.0852L5.22268 25.6863ZM4.49508 31.0177L5.48589 31.1529L5.4859 31.1529L4.49508 31.0177ZM4.92484 31.3274L5.36658 32.2245L4.92484 31.3274ZM16.0707 29.1314C13.8625 29.4899 11.7064 29.1299 9.83697 28.2237L8.96455 30.0234C11.1922 31.1033 13.7638 31.5321 16.3912 31.1056L16.0707 29.1314ZM24.7238 17.124C25.6501 22.8293 21.7759 28.2052 16.0707 29.1314L16.3912 31.1056C23.1867 30.0023 27.8012 23.5991 26.698 16.8035L24.7238 17.124ZM12.7165 8.47093C18.4217 7.54468 23.7976 11.4188 24.7238 17.124L26.698 16.8035C25.5947 10.008 19.1915 5.39352 12.396 6.49678L12.7165 8.47093ZM4.06336 20.4783C3.13711 14.7731 7.01124 9.39718 12.7165 8.47093L12.396 6.49678C5.60045 7.60004 0.985948 14.0033 2.08921 20.7988L4.06336 20.4783ZM6.02188 25.0852C5.03628 23.7748 4.34489 22.2124 4.06336 20.4783L2.08921 20.7988C2.42392 22.8605 3.24772 24.724 4.42348 26.2874L6.02188 25.0852ZM5.4859 31.1529L6.2135 25.8215L4.23186 25.5511L3.50426 30.8824L5.4859 31.1529ZM4.48311 30.4302C4.98617 30.1825 5.56172 30.5973 5.48589 31.1529L3.50427 30.8824C3.36345 31.9142 4.43233 32.6845 5.36658 32.2245L4.48311 30.4302ZM8.95903 28.2264L4.48311 30.4302L5.36658 32.2245L9.84249 30.0207L8.95903 28.2264Z" fill="white" mask="url(#path-1-inside-1_2707_1654)"/>
      <mask id="path-3-inside-2_2707_1654" fill="white">
        <path d="M30.7477 19.8744C32.1882 17.8232 33.0337 15.324 33.0337 12.6272C33.0337 5.65446 27.3812 0.00195312 20.4084 0.00195312C13.4357 0.00195312 7.7832 5.65446 7.7832 12.6272C7.7832 19.5999 13.4357 25.2524 20.4084 25.2524C22.5253 25.2524 24.5205 24.7314 26.2728 23.8107L31.9961 25.5597C32.2259 25.63 32.4409 25.415 32.3707 25.1852L30.7477 19.8744Z"/>
      </mask>
      <path d="M30.7477 19.8744C32.1882 17.8232 33.0337 15.324 33.0337 12.6272C33.0337 5.65446 27.3812 0.00195312 20.4084 0.00195312C13.4357 0.00195312 7.7832 5.65446 7.7832 12.6272C7.7832 19.5999 13.4357 25.2524 20.4084 25.2524C22.5253 25.2524 24.5205 24.7314 26.2728 23.8107L31.9961 25.5597C32.2259 25.63 32.4409 25.415 32.3707 25.1852L30.7477 19.8744Z" fill="currentColor"/>
      <path d="M30.7477 19.8744L29.9294 19.2997L29.6486 19.6995L29.7914 20.1667L30.7477 19.8744ZM26.2728 23.8107L26.565 22.8544L26.1717 22.7342L25.8076 22.9255L26.2728 23.8107ZM31.9961 25.5597L31.7039 26.5161L31.9961 25.5597ZM32.3707 25.1852L33.327 24.8929L32.3707 25.1852ZM32.0337 12.6272C32.0337 15.1117 31.2554 17.4114 29.9294 19.2997L31.5661 20.4491C33.1209 18.2351 34.0337 15.5363 34.0337 12.6272H32.0337ZM20.4084 1.00195C26.8289 1.00195 32.0337 6.20675 32.0337 12.6272H34.0337C34.0337 5.10218 27.9335 -0.998047 20.4084 -0.998047V1.00195ZM8.7832 12.6272C8.7832 6.20675 13.988 1.00195 20.4084 1.00195V-0.998047C12.8834 -0.998047 6.7832 5.10218 6.7832 12.6272H8.7832ZM20.4084 24.2524C13.988 24.2524 8.7832 19.0476 8.7832 12.6272H6.7832C6.7832 20.1522 12.8834 26.2524 20.4084 26.2524V24.2524ZM25.8076 22.9255C24.1954 23.7726 22.3594 24.2524 20.4084 24.2524V26.2524C22.6912 26.2524 24.8456 25.6902 26.7379 24.6959L25.8076 22.9255ZM32.2884 24.6034L26.565 22.8544L25.9805 24.767L31.7039 26.5161L32.2884 24.6034ZM31.4144 25.4774C31.2505 24.9412 31.7521 24.4395 32.2884 24.6034L31.7039 26.5161C32.6998 26.8204 33.6314 25.8888 33.327 24.8929L31.4144 25.4774ZM29.7914 20.1667L31.4144 25.4774L33.327 24.8929L31.7041 19.5822L29.7914 20.1667Z" fill="white" mask="url(#path-3-inside-2_2707_1654)"/>
    </symbol>
    <symbol id="link"  fill="none" viewBox="0 0 32 32">
      <path d="M13.3335 17.3339C13.9061 18.0994 14.6366 18.7328 15.4756 19.1912C16.3145 19.6495 17.2422 19.9221 18.1957 19.9904C19.1492 20.0587 20.1063 19.9211 21.002 19.587C21.8976 19.2529 22.711 18.73 23.3868 18.0539L27.3868 14.0539C28.6012 12.7966 29.2732 11.1126 29.258 9.3646C29.2428 7.61662 28.5417 5.94454 27.3056 4.70848C26.0696 3.47243 24.3975 2.7713 22.6495 2.75611C20.9015 2.74092 19.2175 3.41288 17.9602 4.62727L15.6668 6.90727" stroke="currentColor" stroke-width="2" stroke-linecap="round" stroke-linejoin="round"/>
      <path d="M18.6664 14.6676C18.0938 13.9021 17.3633 13.2687 16.5244 12.8104C15.6855 12.352 14.7578 12.0795 13.8042 12.0112C12.8507 11.9429 11.8937 12.0805 10.998 12.4146C10.1023 12.7487 9.28896 13.2715 8.61311 13.9476L4.61311 17.9476C3.39872 19.205 2.72676 20.889 2.74195 22.637C2.75714 24.3849 3.45827 26.057 4.69432 27.2931C5.93037 28.5291 7.60246 29.2303 9.35044 29.2454C11.0984 29.2606 12.7824 28.5887 14.0398 27.3743L16.3198 25.0943" stroke="currentColor" stroke-width="2" stroke-linecap="round" stroke-linejoin="round"/>
    </symbol>

  </defs>
</svg>
